HIERARCHY
ROOT RootJoint
{
    OFFSET   0.000000   0.000000   0.000000
    CHANNELS 6 Xposition Yposition Zposition Xrotation Yrotation Zrotation
    JOINT pelvis_lowerback
    {
        OFFSET   0.000000   0.093605   0.000000
        CHANNELS 3 Xrotation Yrotation Zrotation
        JOINT lowerback_torso
        {
            OFFSET   0.000000   0.100000   0.000000
            CHANNELS 3 Xrotation Yrotation Zrotation
            JOINT torso_head
            {
                OFFSET   0.000000   0.282350   0.000000
                CHANNELS 3 Xrotation Yrotation Zrotation
                End Site
                {
                    OFFSET   0.000000   0.192650   0.000000
                }
            }
            JOINT rTorso_Clavicle
            {
                OFFSET  -0.001000   0.157500   0.000000
                CHANNELS 3 Xrotation Yrotation Zrotation
                JOINT rShoulder
                {
                    OFFSET  -0.117647   0.000000   0.000000
                    CHANNELS 3 Xrotation Yrotation Zrotation
                    JOINT rElbow
                    {
                        OFFSET  -0.245000   0.000000   0.000000
                        CHANNELS 3 Xrotation Yrotation Zrotation
                        JOINT rWrist
                        {
                            OFFSET  -0.240000   0.000000   0.000000
                            CHANNELS 3 Xrotation Yrotation Zrotation
                            End Site
                            {
                                OFFSET  -0.116353  -0.002500   0.000000
                            }
                        }
                    }
                }
            }
            JOINT lTorso_Clavicle
            {
                OFFSET   0.001000   0.157500   0.000000
                CHANNELS 3 Xrotation Yrotation Zrotation
                JOINT lShoulder
                {
                    OFFSET   0.117647   0.000000   0.000000
                    CHANNELS 3 Xrotation Yrotation Zrotation
                    JOINT lElbow
                    {
                        OFFSET   0.245000   0.000000   0.000000
                        CHANNELS 3 Xrotation Yrotation Zrotation
                        JOINT lWrist
                        {
                            OFFSET   0.240000   0.000000   0.000000
                            CHANNELS 3 Xrotation Yrotation Zrotation
                            End Site
                            {
                                OFFSET   0.116353  -0.002500   0.000000
                            }
                        }
                    }
                }
            }
        }
    }
    JOINT rHip
    {
        OFFSET  -0.100000  -0.051395   0.000000
        CHANNELS 3 Xrotation Yrotation Zrotation
        JOINT rKnee
        {
            OFFSET   0.000000  -0.410000   0.000000
            CHANNELS 3 Xrotation Yrotation Zrotation
            JOINT rAnkle
            {
                OFFSET   0.000000  -0.390000   0.000000
                CHANNELS 3 Xrotation Yrotation Zrotation
                JOINT rToeJoint
                {
                    OFFSET   0.000000  -0.050000   0.130000
                    CHANNELS 3 Xrotation Yrotation Zrotation
                    End Site
                    {
                        OFFSET  -0.010000   0.002000   0.060000
                    }
                }
            }
        }
    }
    JOINT lHip
    {
        OFFSET   0.100000  -0.051395   0.000000
        CHANNELS 3 Xrotation Yrotation Zrotation
        JOINT lKnee
        {
            OFFSET   0.000000  -0.410000   0.000000
            CHANNELS 3 Xrotation Yrotation Zrotation
            JOINT lAnkle
            {
                OFFSET   0.000000  -0.390000   0.000000
                CHANNELS 3 Xrotation Yrotation Zrotation
                JOINT lToeJoint
                {
                    OFFSET   0.000000  -0.050000   0.130000
                    CHANNELS 3 Xrotation Yrotation Zrotation
                    End Site
                    {
                        OFFSET   0.010000   0.002000   0.060000
                    }
                }
            }
        }
    }
}
MOTION
Frames: 14
Frame Time:   0.008333
 -2.376719   0.925631   3.975860   0.000000   0.000000   0.000000   0.000000   0.000000   0.000000   0.000000   0.000000   0.000000   0.000000   0.000000   0.000000   0.000000   0.000000   0.000000   0.000000   0.000000   0.000000   0.000000   0.000000   0.000000   0.000000   0.000000   0.000000   0.000000   0.000000   0.000000   0.000000   0.000000   0.000000   0.000000   0.000000   0.000000   0.000000   0.000000   0.000000   0.000000   0.000000   0.000000   0.000000   0.000000   0.000000   0.000000   0.000000   0.000000   0.000000   0.000000   0.000000   0.000000   0.000000   0.000000   0.000000   0.000000   0.000000   0.000000   0.000000   0.000000   0.000000   0.000000   0.000000
 -2.377058   0.925550   3.974562  -0.227697   0.714420  -0.349088   0.324573  -0.200329   0.169037   0.123729  -0.228232   0.334576   0.031339  -0.200529   0.030695  -0.265145  -0.496324  -0.418303  -1.671262  -0.381057   1.877285   0.048660   3.572956   0.052335  -0.010712  -1.543833  -1.970366  -0.358975   0.251698   0.214249   0.132483  -0.906067  -2.126180   0.051823  -3.366018   0.001610   0.112929   2.108473   1.788342  -0.533861  -1.004230   0.212840   1.620093   0.001747  -0.004089   0.019894   0.060968   0.441896  -0.445151   0.001219   0.000898  -0.628327   0.006650   0.655866   2.745147  -0.006988   0.017592  -2.469622   0.611597   0.064108  -0.069219   0.000234  -0.000805
 -2.377483   0.925407   3.972986  -0.617148   1.631019  -0.737157   0.682660  -0.499614   0.353416   0.351059  -0.604782   0.712438   0.108525  -0.383257   0.090589  -0.525091  -0.839893  -0.337226  -3.246609  -0.634638   4.009523   0.108032   7.284719   0.094168  -0.069179  -2.083004  -3.333354  -0.694423   0.149668  -0.084426   0.196221  -2.087041  -4.523680   0.120711  -6.933795   0.002717   0.223664   2.995079   2.931184  -1.128262  -1.973138   0.276879   3.323235   0.005599  -0.004192   0.055895   0.113686   0.854265  -0.801274   0.001351   0.000764  -0.990614   0.045722   1.569911   5.654976  -0.016385   0.039988  -4.768722   1.199748   0.150395  -0.189033   0.000846  -0.002267
 -2.377899   0.924909   3.971240  -1.044309   2.615650  -1.103497   1.025843  -0.876028   0.525756   0.587994  -1.067119   1.077499   0.175038  -0.551654   0.154616  -0.764222  -1.038455   0.088885  -4.713514  -0.829148   6.258469   0.165450  11.041951   0.126711  -0.121923  -2.230625  -4.091130  -1.006243  -0.187542  -0.714776   0.188527  -3.381458  -7.025243   0.191796 -10.579748   0.003107   0.339418   3.273886   3.474998  -1.838371  -2.873398   0.148612   4.904811   0.010457  -0.002678   0.090152   0.161911   1.238450  -1.123660   0.000928   0.000323  -1.145226   0.090589   2.638442   8.461320  -0.025238   0.060346  -6.910078   1.751477   0.254787  -0.285161   0.001363  -0.003155
 -2.378263   0.923844   3.969387  -1.475055   3.597021  -1.437933   1.355976  -1.302111   0.682105   0.818151  -1.578234   1.418253   0.223482  -0.708448   0.216313  -0.982526  -1.137615   0.731952  -6.073670  -1.004138   8.539972   0.214458  14.823107   0.151756  -0.171588  -2.206988  -4.402889  -1.297076  -0.668100  -1.549912   0.114553  -4.715155  -9.545517   0.257577 -14.271851   0.003983   0.456300   3.228167   3.584904  -2.669760  -3.706685  -0.156750   6.336956   0.015332  -0.001190   0.120199   0.205457   1.596027  -1.424020   0.000216  -0.000116  -1.135053   0.137444   3.817599  11.130632  -0.032722   0.076697  -8.908500   2.266105   0.374082  -0.372467   0.001825  -0.003719
 -2.378551   0.922056   3.967478  -1.897622   4.535576  -1.741085   1.678375  -1.758281   0.823228   1.044287  -2.115682   1.733259   0.256814  -0.854849   0.274323  -1.180618  -1.172196   1.500102  -7.330195  -1.181253  10.794570   0.251962  18.616844   0.170904  -0.221303  -2.105749  -4.410186  -1.569792  -1.233094  -2.502024  -0.017865  -6.044398 -12.029518   0.314518 -17.993093   0.006329   0.569719   2.997617   3.400606  -3.610716  -4.474256  -0.612812   7.624023   0.019580  -0.000315   0.146165   0.244446   1.928691  -1.704413  -0.000602  -0.000436  -0.989239   0.186504   5.077350  13.663444  -0.038672   0.088713 -10.774417   2.744509   0.505142  -0.453474   0.002222  -0.004031
 -2.378748   0.919434   3.965559  -2.305469   5.409343  -2.015824   1.996482  -2.231649   0.950906   1.270223  -2.665590   2.023580   0.279095  -0.991664   0.328358  -1.359633  -1.165745   2.328584  -8.487660  -1.370193  12.981795   0.276981  22.417056   0.185682  -0.272394  -1.972165  -4.220681  -1.827598  -1.845096  -3.509382  -0.200420  -7.343172 -14.441553   0.361544 -21.733655   0.010704   0.676746   2.659256   3.027384  -4.645774  -5.176711  -1.191792   8.776615   0.022867  -0.000129   0.168532   0.279251   2.238152  -1.965512  -0.001404  -0.000608  -0.731070   0.239362   6.392024  16.064859  -0.043144   0.096677 -12.516913   3.188124   0.645023  -0.528410   0.002537  -0.004139
 -2.378495   0.915649   3.963232  -2.520317   6.129787  -2.171804   2.397366  -2.616471   1.084041   1.176194  -3.143691   2.213391   0.263529  -1.320902   0.338753  -1.496705  -1.233136   2.907806  -9.972045  -1.470047  14.957659   0.272146  26.158281   0.211323  -0.399039  -2.069886  -3.498823  -1.788921  -2.311239  -4.028317  -0.597566  -8.926446 -17.090976   0.394551 -25.493752   0.021997   0.742716   2.295418   2.269190  -6.011502  -6.233822  -2.037146  10.047506   0.026317  -0.006188   0.491531   0.056760   2.547199  -2.014006  -0.001310  -0.000188  -0.552717   0.459750   7.537709  17.751230  -0.041683   0.095782 -13.833339   3.762034   0.670197  -0.213429  -0.000654   0.000963
 -2.378126   0.911085   3.960718  -2.676153   6.889259  -2.320595   2.808738  -3.023662   1.246152   1.070426  -3.630010   2.389455   0.233879  -1.635992   0.349816  -1.636276  -1.250607   3.347562 -11.369213  -1.569194  16.723406   0.253366  29.911710   0.230515  -0.529421  -2.156837  -2.899433  -1.768191  -2.825968  -4.459760  -1.047806 -10.450946 -19.557319   0.415354 -29.279035   0.034888   0.809781   1.827284   1.494946  -7.332811  -7.139070  -2.819949  11.226778   0.027467  -0.008848   0.573029  -0.028151   2.933431  -4.194583  -0.006193   0.007199  -0.461174   0.660051   8.664108  19.223436  -0.038991   0.093163 -15.065610   4.296721   0.707193   0.093079  -0.003057   0.004934
 -2.377535   0.907561   3.957481  -2.823336   7.690103  -2.590725   3.335852  -3.435174   1.556904   1.021992  -4.118649   2.612693   0.193660  -1.930686   0.366559  -1.780812  -1.205557   3.766760 -12.683588  -1.660125  18.344585   0.233533  33.671396   0.239828  -0.645287  -2.186377  -2.489802  -1.769004  -3.402351  -4.941332  -1.546923 -11.919788 -21.905468   0.435277 -33.079950   0.053157   0.879432   1.290850   0.830089  -8.440576  -7.848522  -3.102380  12.501443   0.025047  -0.007818   0.089307   0.136379   3.469245  -3.998916  -0.005361   0.006056  -0.723369   0.689258   9.341311  20.058069  -0.030440   0.082082 -16.686335   4.499089   0.474958   0.475461  -0.002411   0.007752
 -2.376701   0.904721   3.953954  -3.023008   8.380918  -2.870514   3.932821  -3.786328   1.887864   1.058644  -4.558087   2.848740   0.169158  -2.204451   0.389937  -1.921705  -1.104995   4.137083 -13.911880  -1.738752  19.852379   0.211529  37.421857   0.243154  -0.750217  -2.151991  -2.115752  -1.779330  -3.993502  -5.385375  -2.075585 -13.310702 -24.123699   0.452801 -36.891592   0.074510   0.945009   0.717548   0.180970  -9.347903  -8.550620  -3.175056  13.726425   0.020877  -0.007519  -0.194272   0.213130   3.761214  -3.834445  -0.004555   0.004867  -1.170530   0.731982   9.620348  20.825278  -0.021183   0.071203 -18.169920   4.720896   0.304735   0.746068  -0.001030   0.008733
 -2.376011   0.903591   3.951244  -3.421864   8.597873  -2.751754   4.543743  -3.947898   1.826402   1.177815  -4.833616   2.941261   0.170685  -2.456672   0.408260  -2.047935  -0.945752   4.597111 -15.044635  -1.805687  21.336016   0.186624  40.948363   0.245122  -0.839992  -1.956232  -1.679108  -1.765712  -4.501284  -5.811888  -2.595471 -14.552375 -26.201602   0.467866 -40.680719   0.091968   1.009670   0.224829  -0.426284 -10.029368  -9.281366  -3.497268  14.867197   0.015666  -0.012436  -0.041167   0.129903   3.974575  -3.688305  -0.003954   0.002975  -1.724402   0.805588   9.612773  22.358333  -0.013573   0.063012 -18.968198   5.058479   0.300689   0.977960  -0.000762   0.008559
 -2.375306   0.902487   3.949201  -3.807681   8.699284  -2.692713   5.057288  -4.096030   1.870507   1.277750  -5.066120   2.995564   0.176316  -2.693694   0.408174  -2.169968  -0.776887   4.911444 -16.103518  -1.869626  22.674557   0.152757  44.250591   0.248452  -0.927853  -1.715693  -1.211593  -1.732491  -4.960904  -6.170249  -3.108149 -15.691807 -28.170141   0.476211 -44.475432   0.107884   1.059942  -0.232293  -1.089287 -10.651022 -10.070931  -3.769418  15.890210   0.011241  -0.017054   0.217923  -0.051737   4.170639  -3.547602  -0.003466   0.001171  -2.140591   1.065223   9.694035  23.685360  -0.008091   0.056063 -19.773252   5.527369   0.311255   1.188492  -0.000596   0.008601
 -2.374837   0.900905   3.947452  -3.962303   8.969308  -2.642786   5.380928  -4.334074   1.814648   1.267236  -5.242619   3.113014   0.202541  -2.800799   0.460751  -2.295665  -0.794901   5.097892 -16.997943  -2.049989  23.767924   0.109105  47.727521   0.257504  -1.084502  -1.584878  -0.615717  -1.554720  -5.358418  -6.238394  -3.761761 -16.934395 -29.902090   0.469519 -48.285929   0.122926   1.073553  -0.676069  -2.021759 -11.237344 -10.859014  -4.147632  16.184660   0.008893  -0.015270   0.180111  -0.389288   4.304648  -3.379683  -0.002893  -0.000399  -2.920037   1.320144   9.797280  25.194522  -0.002871   0.053724 -20.581080   5.969902   0.537081   1.314573  -0.000741   0.008126
